<?xml version="1.0" encoding="UTF-8" standalone="no"?>
<!-- Created with Inkscape (http://www.inkscape.org/) -->

<svg
   width="64mm"
   height="64mm"
   viewBox="0 0 64 64"
   version="1.1"
   id="svg5"
   inkscape:version="1.1 (1:1.1+202105261517+ce6663b3b7)"
   sodipodi:docname="dungee.svg"
   xmlns:inkscape="http://www.inkscape.org/namespaces/inkscape"
   xmlns:sodipodi="http://sodipodi.sourceforge.net/DTD/sodipodi-0.dtd"
   xmlns="http://www.w3.org/2000/svg"
   xmlns:svg="http://www.w3.org/2000/svg">
  <sodipodi:namedview
     id="namedview7"
     pagecolor="#ffffff"
     bordercolor="#666666"
     borderopacity="1.0"
     inkscape:pageshadow="2"
     inkscape:pageopacity="0.0"
     inkscape:pagecheckerboard="0"
     inkscape:document-units="mm"
     showgrid="false"
     showguides="true"
     inkscape:guide-bbox="true"
     fit-margin-top="0"
     fit-margin-left="0"
     fit-margin-right="0"
     fit-margin-bottom="0"
     inkscape:zoom="0.82520591"
     inkscape:cx="262.35876"
     inkscape:cy="52.108206"
     inkscape:window-width="1600"
     inkscape:window-height="821"
     inkscape:window-x="0"
     inkscape:window-y="0"
     inkscape:window-maximized="1"
     inkscape:current-layer="layer1">
    <sodipodi:guide
       position="114.53327,86.94263"
       orientation="1,0"
       id="guide371" />
  </sodipodi:namedview>
  <defs
     id="defs2" />
  <g
     inkscape:label="Capa 1"
     inkscape:groupmode="layer"
     id="layer1"
     transform="translate(-66.387334,-72.241789)">
    <path
       id="path1221"
       style="fill:#ff0000;stroke-width:0.136386"
       d="m 83.87412,126.62451 a 4.1025439,4.2433816 0 0 1 -4.102543,4.24339 4.1025439,4.2433816 0 0 1 -4.102544,-4.24339 4.1025439,4.2433816 0 0 1 4.102544,-4.24338 4.1025439,4.2433816 0 0 1 4.102543,4.24338 z M 86.110767,79.547218 C 68.670679,76.628787 67.045175,84.330483 67.071625,94.517388 l 9.790204,1.144766 c 2.912022,-14.950911 18.284202,0.41728 -2.604599,15.167336 l 0.153122,10.20882 11.769259,-0.90485 z M 101.91403,76.37842 c -4.718125,0.05017 -10.036977,1.027446 -15.956168,3.168743 l 0.06894,49.311367 C 138.38887,148.04878 143.65134,75.934607 101.91403,76.37842 Z m 5.47262,11.067447 c 14.10127,-0.113394 21.71061,32.220823 -8.508354,28.778073 l 2.158674,-26.543833 c 2.18808,-1.539482 4.33521,-2.218041 6.34968,-2.23424 z" />
  </g>
</svg>
